<svg xmlns="http://www.w3.org/2000/svg" width="89" height="59" viewBox="0 0 89 59"><rect width="100%" height="100%" fill="#DDDDDD"/><path fill="#999999" d="M22.15 33.865q.49 0 .86-.14t.62-.38q.25-.25.38-.6.13-.34.13-.74 0-.95-.53-1.44t-1.46-.49-1.45.49q-.53.49-.53 1.44 0 .4.13.74.12.35.38.6.25.24.62.38.36.14.85.14m0-8.79q-.44 0-.76.14-.32.13-.53.36t-.31.53q-.1.29-.1.62 0 .34.08.67.09.32.29.57.2.26.52.41.33.15.81.15t.81-.15.53-.41q.2-.25.28-.57.09-.33.09-.67 0-.33-.11-.62-.1-.3-.31-.53t-.53-.36q-.32-.14-.76-.14m1.95 4.18q1.06.34 1.56 1.05.51.71.51 1.73 0 .77-.29 1.39-.3.63-.82 1.07-.53.44-1.27.68t-1.64.24q-.89 0-1.63-.24t-1.27-.68-.82-1.07q-.29-.62-.29-1.39 0-1.02.5-1.73t1.56-1.05q-.84-.35-1.26-1t-.42-1.56q0-.66.27-1.23.27-.56.75-.98t1.14-.66q.67-.24 1.47-.24t1.47.24 1.15.66.75.98q.26.57.26 1.23 0 .91-.42 1.56t-1.26 1m5.33-2.07q0 .97.5 1.48t1.42.51q.48 0 .86-.15.37-.16.63-.42t.39-.62.13-.78q0-.47-.14-.84-.15-.38-.41-.63-.27-.26-.63-.39-.36-.14-.8-.14t-.8.15-.62.41-.39.63q-.14.36-.14.79m-.97 8.1 3.6-4.49.25-.33q.12-.16.23-.32-.4.26-.88.39t-1 .13q-.6 0-1.18-.2-.58-.21-1.02-.63-.45-.42-.73-1.04-.27-.62-.27-1.45 0-.78.28-1.46.29-.68.81-1.19t1.25-.81 1.61-.3q.89 0 1.59.28.71.28 1.21.79.5.5.77 1.21.27.7.27 1.54 0 .54-.09 1.02-.1.48-.26.92-.17.44-.41.87-.24.42-.54.84l-2.65 3.77q-.13.2-.4.33-.28.13-.62.13zm19.92-2.65-1.05 1.03-2.71-2.71-2.74 2.73-1.05-1.03 2.74-2.75-2.61-2.6 1.04-1.04 2.61 2.6 2.59-2.59 1.06 1.04-2.6 2.6zm8.4-7.13-.4 2.41q.38-.08.73-.11.35-.04.68-.04.91 0 1.61.27t1.17.75.71 1.13q.24.64.24 1.39 0 .92-.32 1.68-.33.76-.9 1.3-.58.54-1.37.83-.79.3-1.71.3-.55 0-1.04-.11-.48-.12-.91-.3-.43-.19-.79-.44-.37-.24-.66-.51l.61-.84q.19-.27.51-.27.2 0 .4.12.21.13.48.28.27.16.63.28.37.13.88.13.54 0 .96-.17.41-.18.69-.5.28-.31.42-.75.14-.43.14-.95 0-.94-.55-1.47t-1.62-.53q-.83 0-1.69.3l-1.23-.35.96-5.62h5.71v.84q0 .43-.26.69-.27.26-.9.26zm8.27 1.68q0 .97.5 1.48t1.42.51q.48 0 .85-.15.38-.16.64-.42.25-.26.38-.62.14-.36.14-.78 0-.47-.15-.84-.14-.38-.41-.63-.26-.26-.62-.39-.37-.14-.8-.14-.45 0-.81.15t-.61.41q-.26.26-.4.63-.13.36-.13.79m-.97 8.1 3.59-4.49q.14-.17.26-.33t.23-.32q-.4.26-.88.39t-1.01.13q-.6 0-1.17-.2-.58-.21-1.03-.63t-.72-1.04q-.28-.62-.28-1.45 0-.78.29-1.46t.81-1.19 1.25-.81q.72-.3 1.6-.3.89 0 1.6.28t1.21.79q.5.5.77 1.21.26.7.26 1.54 0 .54-.09 1.02t-.26.92-.41.87q-.24.42-.53.84l-2.65 3.77q-.14.2-.41.33t-.61.13z"/></svg>