<svg xmlns="http://www.w3.org/2000/svg" width="187" height="40" viewBox="0 0 187 40"><rect width="100%" height="100%" fill="#DDDDDD"/><path fill="#999999" d="M61.185 25.38h2.6v1.85h-8v-1.85h2.93v-8.43q0-.5.03-1.03l-2.08 1.74q-.18.14-.35.18-.18.03-.33 0-.16-.03-.28-.11-.12-.07-.18-.16l-.78-1.07 4.41-3.75h2.03zm9.65.08q.61 0 1.07-.18.46-.17.78-.48.31-.31.47-.74t.16-.93q0-1.19-.66-1.8t-1.82-.61-1.82.61-.66 1.8q0 .5.16.93t.48.74q.31.31.77.48.46.18 1.07.18m0-10.99q-.55 0-.95.17t-.66.46q-.27.28-.39.65-.13.37-.13.78 0 .43.11.83.1.41.35.73.25.31.66.5t1.01.19 1.01-.19.66-.5q.25-.32.36-.73.1-.4.1-.83 0-.41-.13-.78t-.39-.65q-.26-.29-.66-.46t-.95-.17m2.44 5.22q1.32.43 1.95 1.31.63.89.63 2.17 0 .96-.36 1.74-.37.78-1.03 1.33t-1.58.85q-.93.3-2.05.3t-2.04-.3q-.93-.3-1.59-.85t-1.02-1.33q-.37-.78-.37-1.74 0-1.28.63-2.17.63-.88 1.95-1.31-1.05-.44-1.57-1.25-.53-.81-.53-1.95 0-.82.34-1.53.33-.71.93-1.24.6-.52 1.44-.82.83-.29 1.83-.29t1.84.29q.83.3 1.43.82.6.53.94 1.24.33.71.33 1.53 0 1.14-.52 1.95-.53.81-1.58 1.25m4.29-6.92h9.99v1.07q0 .48-.1.77-.1.3-.2.5l-5.48 11.28q-.17.35-.48.6-.31.24-.83.24h-1.79l5.59-11.05q.19-.34.38-.63.18-.28.41-.54h-6.92q-.23 0-.4-.17t-.17-.4zm26.05 11.15-1.31 1.29-3.39-3.39-3.42 3.41-1.31-1.29 3.42-3.43-3.26-3.26 1.3-1.3 3.26 3.26 3.24-3.24 1.32 1.3-3.25 3.25zm8.66-2.14h4.4v-4.73q0-.67.09-1.48zm6.55 0h1.82v1.43q0 .2-.13.34-.13.15-.37.15h-1.32v3.53h-2.15V23.7h-6.1q-.25 0-.44-.16-.19-.15-.24-.38l-.26-1.25 6.85-9.15h2.34zm13.43-1.78q0 1.89-.4 3.28-.41 1.4-1.12 2.31-.72.91-1.69 1.35-.98.45-2.11.45t-2.09-.45q-.97-.44-1.68-1.35t-1.11-2.31q-.4-1.39-.4-3.28 0-1.9.4-3.29t1.11-2.3 1.68-1.36q.96-.44 2.09-.44t2.11.44q.97.45 1.69 1.36.71.91 1.12 2.3.4 1.39.4 3.29m-2.55 0q0-1.57-.23-2.6t-.61-1.64q-.39-.61-.89-.86-.5-.24-1.04-.24-.53 0-1.02.24-.5.25-.88.86t-.6 1.64q-.23 1.03-.23 2.6t.23 2.6q.22 1.03.6 1.64t.88.85q.49.25 1.02.25.54 0 1.04-.25.5-.24.89-.85.38-.61.61-1.64t.23-2.6"/></svg>