<svg xmlns="http://www.w3.org/2000/svg" width="133" height="40" viewBox="0 0 133 40"><rect width="100%" height="100%" fill="#DDDDDD"/><path fill="#999999" d="M34.185 25.38h2.6v1.85h-8v-1.85h2.93v-8.43q0-.5.03-1.03l-2.08 1.74q-.18.14-.35.18-.18.03-.33 0-.16-.03-.28-.11-.12-.07-.18-.16l-.78-1.07 4.41-3.75h2.03zm6.23-8.35-1.3-.23q.15-1.04.58-1.83.43-.78 1.08-1.3.64-.53 1.48-.8.83-.26 1.79-.26 1 0 1.81.28.8.29 1.37.8.57.5.88 1.18.3.68.3 1.47 0 .69-.15 1.21-.16.53-.45.92t-.72.66-.97.45q1.3.41 1.94 1.25t.64 2.11q0 1.08-.4 1.91t-1.08 1.4q-.68.56-1.57.85-.9.29-1.9.29-1.09 0-1.9-.25t-1.41-.74-1.02-1.2-.72-1.64l1.09-.45q.43-.18.81-.09.37.08.54.4.18.35.4.69.21.34.51.6.3.27.71.44.4.16.96.16.63 0 1.1-.21.47-.2.79-.53.31-.33.47-.74.15-.4.15-.81 0-.52-.11-.95-.11-.42-.46-.72t-1-.47q-.66-.17-1.76-.17v-1.76q.91-.01 1.51-.17t.96-.44q.35-.29.49-.69t.14-.88q0-1.02-.57-1.55t-1.52-.53q-.44 0-.81.12-.37.13-.66.36-.3.22-.5.52t-.3.66q-.17.46-.44.61-.28.15-.78.07m11.6 0-1.3-.23q.15-1.04.58-1.83.43-.78 1.08-1.3.64-.53 1.48-.8.83-.26 1.79-.26 1 0 1.81.28.8.29 1.37.8.57.5.88 1.18.3.68.3 1.47 0 .69-.15 1.21-.16.53-.45.92t-.72.66-.97.45q1.3.41 1.94 1.25t.64 2.11q0 1.08-.4 1.91t-1.08 1.4q-.68.56-1.57.85-.9.29-1.9.29-1.09 0-1.9-.25t-1.41-.74-1.02-1.2-.72-1.64l1.09-.45q.43-.18.81-.09.37.08.54.4.18.35.4.69.21.34.51.6.3.27.71.44.4.16.96.16.63 0 1.1-.21.47-.2.79-.53.31-.33.47-.74.15-.4.15-.81 0-.52-.11-.95-.11-.42-.46-.72t-1-.47q-.66-.17-1.76-.17v-1.76q.91-.01 1.51-.17t.96-.44q.35-.29.49-.69t.14-.88q0-1.02-.57-1.55t-1.52-.53q-.44 0-.81.12-.37.13-.66.36-.3.22-.5.52t-.3.66q-.17.46-.44.61-.28.15-.78.07m24.6 6.89-1.31 1.29-3.39-3.39-3.42 3.41-1.31-1.29 3.42-3.43-3.26-3.26 1.3-1.3 3.26 3.26 3.24-3.24 1.32 1.3-3.25 3.25zm8.66-2.14h4.4v-4.73q0-.67.09-1.48zm6.55 0h1.82v1.43q0 .2-.13.34-.13.15-.37.15h-1.32v3.53h-2.15V23.7h-6.1q-.25 0-.44-.16-.19-.15-.24-.38l-.26-1.25 6.85-9.15h2.34zm13.43-1.78q0 1.89-.4 3.28-.41 1.4-1.12 2.31-.72.91-1.69 1.35-.98.45-2.11.45t-2.09-.45q-.97-.44-1.68-1.35t-1.11-2.31q-.4-1.39-.4-3.28 0-1.9.4-3.29t1.11-2.3 1.68-1.36q.96-.44 2.09-.44t2.11.44q.97.45 1.69 1.36.71.91 1.12 2.3.4 1.39.4 3.29m-2.55 0q0-1.57-.23-2.6t-.61-1.64q-.39-.61-.89-.86-.5-.24-1.04-.24-.53 0-1.02.24-.5.25-.88.86t-.6 1.64q-.23 1.03-.23 2.6t.23 2.6q.22 1.03.6 1.64t.88.85q.49.25 1.02.25.54 0 1.04-.25.5-.24.89-.85.38-.61.61-1.64t.23-2.6"/></svg>