<svg xmlns="http://www.w3.org/2000/svg" width="18" height="15" viewBox="0 0 18 15"><rect width="100%" height="100%" fill="#DDDDDD"/><path fill="#999999" d="M3.76 8.575h.52v.37h-1.6v-.37h.58v-1.69q0-.1.01-.2l-.42.35q-.03.02-.07.03-.03.01-.06 0-.03 0-.06-.02-.02-.01-.03-.03l-.16-.22.88-.75h.41zm1.93.02q.12 0 .21-.04.09-.03.16-.1.06-.06.09-.14.03-.09.03-.19 0-.24-.13-.36t-.36-.12-.37.12q-.13.12-.13.36 0 .1.03.19.04.08.1.14.06.07.15.1.1.04.22.04m0-2.2q-.11 0-.19.03-.08.04-.14.09-.05.06-.07.13-.03.08-.03.16 0 .09.02.17t.07.14.14.1q.08.04.2.04t.2-.04.13-.1.07-.14.02-.17q0-.08-.02-.16-.03-.07-.08-.13-.05-.05-.13-.09-.08-.03-.19-.03m.49 1.04q.26.09.39.26.12.18.12.44 0 .19-.07.35-.07.15-.21.26-.13.11-.31.17-.19.06-.41.06-.23 0-.41-.06-.19-.06-.32-.17t-.2-.26q-.08-.16-.08-.35 0-.26.13-.44.13-.17.39-.26-.21-.09-.31-.25-.11-.16-.11-.39 0-.16.07-.3.06-.15.18-.25.12-.11.29-.17.17-.05.37-.05t.37.05q.16.06.28.17.12.1.19.25.07.14.07.3 0 .23-.11.39-.1.16-.31.25m3.74.85-.26.26-.68-.68-.68.68-.26-.26.68-.68-.65-.66.26-.26.65.66.65-.65.26.26-.65.65zm2.74.29h.52v.37h-1.6v-.37h.59v-1.89l-.41.35q-.04.02-.07.03-.04.01-.07 0-.03 0-.05-.02-.03-.01-.04-.03l-.16-.22.89-.75h.4zm1.69-2.07-.11.6q.1-.02.19-.03t.17-.01q.23 0 .4.07t.29.19.18.28.06.34q0 .23-.08.42t-.23.33q-.14.13-.34.21-.19.07-.43.07-.13 0-.25-.03-.13-.02-.23-.07-.11-.05-.2-.11t-.16-.13l.15-.21q.05-.07.12-.07.05 0 .11.04l.12.07q.06.03.15.07.09.03.22.03.14 0 .24-.05.11-.04.18-.12.06-.08.1-.19.03-.11.03-.23 0-.24-.13-.37-.14-.14-.41-.14-.2 0-.42.08l-.31-.09.24-1.4h1.43v.21q0 .1-.07.17-.06.07-.22.07z"/></svg>