<svg xmlns="http://www.w3.org/2000/svg" width="55" height="45" viewBox="0 0 55 45"><rect width="100%" height="100%" fill="#DDDDDD"/><path fill="#999999" d="m12.92 19.97-.26 1.5q.24-.05.46-.07t.42-.02q.57 0 1.01.17t.73.47q.3.3.44.7.16.4.16.87 0 .57-.21 1.05-.2.48-.56.81-.36.34-.85.53-.49.18-1.08.18-.33 0-.64-.07-.3-.07-.57-.19-.27-.11-.5-.27-.23-.15-.41-.32l.39-.52q.12-.18.31-.18.13 0 .26.08.13.09.29.18.17.1.4.18.22.07.55.07.34 0 .59-.1.26-.12.44-.31.17-.2.26-.47.08-.28.08-.6 0-.58-.34-.92-.34-.33-1.01-.33-.51 0-1.05.19l-.78-.22.61-3.51h3.57v.52q0 .27-.17.43-.17.17-.56.17zm5.8 0-.26 1.5q.24-.05.46-.07t.43-.02q.57 0 1 .17.44.17.73.47.3.3.45.7t.15.87q0 .57-.21 1.05-.2.48-.56.81-.36.34-.85.53-.49.18-1.07.18-.34 0-.65-.07-.3-.07-.57-.19-.27-.11-.5-.27-.22-.15-.4-.32l.38-.52q.12-.18.31-.18.13 0 .26.08.13.09.29.18.17.1.4.18.23.07.55.07.34 0 .6-.1.26-.12.43-.31.17-.2.26-.47.09-.28.09-.6 0-.58-.35-.92-.34-.33-1.01-.33-.51 0-1.05.19l-.77-.22.6-3.51h3.57v.52q0 .27-.17.43-.16.17-.56.17zm11.2 4.45-.65.65-1.7-1.7-1.71 1.71-.65-.65 1.71-1.71-1.63-1.63.65-.65 1.63 1.63 1.62-1.62.66.65-1.63 1.63zm4.33-1.07h2.2v-2.36q0-.33.05-.74zm3.27 0h.92v.72q0 .1-.07.17-.06.07-.18.07h-.67v1.77h-1.07v-1.77H33.4q-.12 0-.22-.07-.09-.08-.12-.2l-.13-.62 3.43-4.58h1.16zm3.46-3.38-.26 1.5q.24-.05.46-.07t.43-.02q.57 0 1 .17.44.17.73.47.3.3.45.7t.15.87q0 .57-.21 1.05-.2.48-.56.81-.36.34-.85.53-.49.18-1.07.18-.34 0-.65-.07-.3-.07-.57-.19-.27-.11-.5-.27-.22-.15-.4-.32l.38-.52q.12-.18.31-.18.13 0 .26.08.13.09.29.18.17.1.4.18.23.07.55.07.34 0 .6-.1.26-.12.43-.31.17-.2.26-.47.09-.28.09-.6 0-.58-.35-.92-.34-.33-1.01-.33-.51 0-1.05.19l-.77-.22.6-3.51h3.57v.52q0 .27-.17.43-.16.17-.56.17z"/></svg>