<svg xmlns="http://www.w3.org/2000/svg" width="30" height="21" viewBox="0 0 30 21"><rect width="100%" height="100%" fill="#000000"/><path fill="#FFFFFF" d="m5.65 9.61-.39-.07q.04-.31.17-.55.13-.23.32-.39.2-.16.45-.24t.53-.08q.31 0 .55.09t.41.24.26.35q.09.21.09.44 0 .21-.04.37-.05.15-.14.27-.08.12-.21.2t-.29.14q.39.12.58.37t.19.63q0 .33-.12.58-.12.24-.32.41-.21.17-.48.26-.26.09-.57.09-.32 0-.56-.08-.25-.07-.43-.22t-.3-.36q-.13-.21-.22-.49l.33-.14q.13-.05.24-.02.11.02.16.12l.12.2q.07.11.15.19.09.07.22.12.12.05.29.05.19 0 .33-.06t.23-.16q.1-.1.14-.22.05-.12.05-.24 0-.16-.03-.29-.04-.12-.14-.21-.11-.09-.3-.15-.2-.05-.53-.05v-.52q.27-.01.45-.06.18-.04.29-.13.11-.08.15-.2t.04-.27q0-.3-.17-.46t-.46-.16q-.13 0-.24.04-.11.03-.2.1t-.15.16-.09.2q-.05.13-.13.18-.08.04-.23.02m6.09.89q0 .57-.12.99-.12.41-.34.69-.21.27-.5.4-.29.14-.63.14t-.63-.14q-.29-.13-.5-.4-.22-.28-.34-.69-.12-.42-.12-.99t.12-.99q.12-.41.34-.69.21-.27.5-.4.29-.14.63-.14t.63.14q.29.13.5.4.22.28.34.69.12.42.12.99m-.76 0q0-.47-.07-.78t-.19-.49q-.11-.18-.26-.26-.15-.07-.31-.07t-.31.07q-.15.08-.26.26-.12.18-.19.49-.06.31-.06.78t.06.78q.07.31.19.49.11.19.26.26t.31.07.31-.07.26-.26q.12-.18.19-.49t.07-.78m5.53 1.18-.4.38-1.01-1.01-1.03 1.02-.39-.39 1.02-1.03-.97-.97.39-.39.97.97.98-.97.39.39-.97.98zm3.61.3h1.11q.12 0 .19.07.07.06.07.18v.44h-2.97v-.25q0-.07.03-.15.03-.09.1-.15l1.32-1.32q.16-.17.29-.32.13-.16.22-.31t.13-.3q.05-.16.05-.33 0-.15-.05-.27-.04-.12-.12-.2-.09-.08-.2-.12-.12-.04-.26-.04-.13 0-.25.04-.11.03-.2.1-.08.07-.14.16t-.09.2q-.05.13-.13.18-.09.04-.24.02l-.39-.07q.05-.31.18-.55.12-.23.32-.39.19-.16.44-.24t.54-.08q.3 0 .55.09t.43.25q.17.16.27.39t.1.51q0 .24-.07.44-.07.21-.19.39-.12.19-.28.36-.16.18-.33.36l-.98 1q.14-.05.28-.07t.27-.02m3.97.13h.78v.56h-2.4v-.56h.88V9.59q0-.15.01-.31l-.62.52q-.06.04-.11.05t-.1 0q-.04-.01-.08-.03t-.05-.05l-.24-.32 1.32-1.12h.61z"/></svg>