<svg xmlns="http://www.w3.org/2000/svg" width="53" height="16" viewBox="0 0 53 16"><rect width="100%" height="100%" fill="#DDDDDD"/><path fill="#999999" d="m14.74 6.005-.2 1.21q.19-.04.37-.06.17-.02.34-.02.45 0 .8.14.35.13.59.37.23.24.35.56.12.33.12.7 0 .46-.16.84t-.45.65-.68.42q-.4.14-.86.14-.27 0-.52-.05-.24-.06-.45-.15-.22-.1-.4-.22t-.33-.26l.31-.42q.09-.13.25-.13.1 0 .2.06.11.07.24.14.14.08.32.14.18.07.44.07.27 0 .48-.09.2-.09.34-.25t.21-.37q.07-.22.07-.48 0-.47-.27-.74-.28-.26-.81-.26-.42 0-.85.15l-.61-.18.48-2.8h2.85v.42q0 .21-.13.34t-.45.13zm3.77.81-.52-.09q.06-.42.23-.73.17-.32.43-.53t.59-.31q.34-.11.72-.11.4 0 .72.12.32.11.55.31t.35.48q.12.27.12.58 0 .28-.06.49t-.18.37q-.11.15-.28.26-.18.11-.39.18.52.16.77.5.26.34.26.84 0 .44-.16.77t-.43.56q-.27.22-.63.34-.36.11-.76.11-.44 0-.76-.1t-.56-.29q-.24-.2-.41-.48-.17-.29-.29-.66l.44-.18q.17-.07.32-.04.15.04.22.17.07.14.15.27.09.14.21.24.12.11.28.18.16.06.39.06.25 0 .44-.08t.31-.21q.13-.14.19-.3t.06-.32q0-.21-.04-.38-.05-.17-.19-.29t-.4-.19-.7-.07v-.7q.36-.01.6-.07t.39-.18q.14-.11.19-.27.06-.16.06-.35 0-.41-.23-.62-.23-.22-.61-.22-.17 0-.32.05t-.27.14q-.11.09-.19.21t-.12.27q-.07.18-.18.24t-.31.03m9.84 2.76-.53.51-1.35-1.35-1.37 1.36-.52-.52 1.36-1.37-1.3-1.3.52-.52 1.3 1.3 1.3-1.29.53.52-1.3 1.3zm5.47.58h1.04v.74h-3.2v-.74h1.18v-3.37q0-.2.01-.41l-.83.69q-.08.06-.15.07-.07.02-.13 0-.06-.01-.11-.04t-.07-.06l-.31-.43 1.76-1.5h.81zm5.35-5.04-1.72 2.1-.2.24q.17-.08.36-.13.2-.04.42-.04.33 0 .64.11.31.1.55.32.23.22.38.54.14.33.14.76 0 .4-.15.76-.15.35-.41.62-.27.26-.65.41t-.83.15q-.47 0-.84-.14-.36-.15-.62-.42-.26-.26-.4-.64-.14-.37-.14-.83 0-.41.17-.84.16-.43.51-.89l1.38-1.85q.07-.1.21-.17.14-.06.32-.06zm-1.49 5.04q.23 0 .43-.08t.34-.23q.14-.14.22-.34.08-.19.08-.42 0-.25-.07-.44-.08-.2-.22-.34t-.34-.21q-.19-.07-.43-.07-.23 0-.43.08-.19.08-.32.22-.14.14-.22.34-.07.19-.07.41 0 .24.06.44.07.2.2.34t.32.22.45.08"/></svg>