<svg xmlns="http://www.w3.org/2000/svg" width="108" height="40" viewBox="0 0 108 40"><rect width="100%" height="100%" fill="#DDDDDD"/><path fill="#999999" d="M26.535 24.575h2.21v1.57h-6.8v-1.57h2.49v-7.17q0-.42.02-.87l-1.77 1.48q-.15.11-.3.14t-.28.01q-.13-.03-.23-.09t-.15-.14l-.67-.91 3.75-3.19h1.73zm12.7-4.58q0 1.61-.34 2.8-.34 1.18-.95 1.96-.61.77-1.44 1.15t-1.79.38-1.78-.38-1.42-1.15q-.61-.78-.95-1.96-.34-1.19-.34-2.8t.34-2.79.95-1.96q.6-.77 1.42-1.15t1.78-.38 1.79.38 1.44 1.15q.61.78.95 1.96t.34 2.79m-2.16 0q0-1.33-.2-2.21-.19-.87-.52-1.39t-.75-.73q-.43-.2-.89-.2-.45 0-.87.2-.42.21-.74.73-.33.52-.52 1.39-.19.88-.19 2.21 0 1.34.19 2.21.19.88.52 1.4.32.52.74.73.42.2.87.2.46 0 .89-.2.42-.21.75-.73t.52-1.4q.2-.87.2-2.21m7.52 4.65q.52 0 .91-.15t.66-.42q.26-.26.4-.62.14-.37.14-.8 0-1.01-.56-1.53-.57-.51-1.55-.51-.99 0-1.55.51-.56.52-.56 1.53 0 .43.14.8.13.36.4.62.27.27.66.42t.91.15m0-9.35q-.47 0-.81.15-.34.14-.56.39-.23.24-.34.55-.1.32-.1.66 0 .37.09.71.09.35.3.62.21.26.56.43.35.16.86.16t.86-.16q.35-.17.56-.43.21-.27.3-.62.09-.34.09-.71 0-.34-.11-.66-.11-.31-.33-.55-.22-.25-.56-.39-.34-.15-.81-.15m2.07 4.44q1.12.37 1.66 1.12t.54 1.84q0 .81-.31 1.48-.31.66-.88 1.13-.56.47-1.34.72-.79.26-1.74.26t-1.74-.26q-.79-.25-1.35-.72t-.87-1.13q-.31-.67-.31-1.48 0-1.09.54-1.84.53-.75 1.65-1.12-.89-.37-1.33-1.06-.45-.69-.45-1.66 0-.7.28-1.3.29-.6.8-1.05t1.22-.7 1.56-.25 1.56.25 1.22.7.79 1.05q.29.6.29 1.3 0 .97-.45 1.66-.44.69-1.34 1.06m15.93 3.6-1.11 1.09-2.88-2.88-2.91 2.9-1.11-1.1 2.9-2.91-2.77-2.77 1.11-1.11 2.77 2.77 2.75-2.75 1.12 1.1-2.76 2.77zm7.36-1.82h3.74v-4.02q0-.57.08-1.26zm5.57 0h1.55v1.21q0 .17-.11.3-.11.12-.32.12h-1.12v3h-1.83v-3h-5.18q-.21 0-.38-.13-.16-.13-.2-.33l-.22-1.06 5.82-7.78h1.99zm11.42-1.52q0 1.61-.35 2.8-.34 1.18-.95 1.96-.61.77-1.44 1.15t-1.79.38-1.78-.38-1.42-1.15q-.6-.78-.94-1.96-.34-1.19-.34-2.8t.34-2.79.94-1.96q.6-.77 1.42-1.15t1.78-.38 1.79.38 1.44 1.15q.61.78.95 1.96.35 1.18.35 2.79m-2.17 0q0-1.33-.2-2.21-.19-.87-.52-1.39t-.75-.73q-.43-.2-.89-.2-.45 0-.87.2-.42.21-.74.73t-.52 1.39q-.19.88-.19 2.21 0 1.34.19 2.21.2.88.52 1.4t.74.73q.42.2.87.2.46 0 .89-.2.42-.21.75-.73t.52-1.4q.2-.87.2-2.21"/></svg>